<?xml version="1.0" standalone="no"?>
<!DOCTYPE svg PUBLIC "-//W3C//DTD SVG 20010904//EN"
 "http://www.w3.org/TR/2001/REC-SVG-20010904/DTD/svg10.dtd">
<svg version="1.0" xmlns="http://www.w3.org/2000/svg"
 width="1280.000000pt" height="1263.000000pt" viewBox="0 0 1280.000000 1263.000000"
 preserveAspectRatio="xMidYMid meet">
<metadata>
Created by potrace 1.15, written by Peter Selinger 2001-2017
</metadata>
<g transform="translate(0.000000,1263.000000) scale(0.100000,-0.100000)"
fill="#2e5801" stroke="none">
<path d="M4897 12616 c-20 -8 -61 -32 -90 -53 -91 -69 -267 -244 -300 -299
-42 -70 -539 -712 -783 -1011 -107 -131 -205 -244 -220 -251 -14 -8 -92 -22
-172 -32 -168 -21 -237 -35 -449 -90 -172 -45 -205 -59 -318 -141 -101 -73
-122 -81 -221 -80 -165 0 -250 57 -640 433 -56 54 -60 56 -341 117 -242 53
-328 44 -668 -68 -290 -95 -516 -193 -619 -268 -63 -46 -80 -87 -73 -178 8
-109 40 -168 128 -241 105 -86 183 -143 269 -198 103 -67 159 -113 364 -304
293 -273 374 -328 518 -352 85 -15 294 -8 458 15 302 42 382 43 468 5 58 -26
84 -49 134 -124 58 -84 115 -210 137 -305 29 -122 67 -193 219 -415 76 -111
175 -255 220 -321 160 -237 254 -327 382 -366 38 -11 75 -26 84 -32 8 -7 22
-47 31 -92 23 -113 48 -158 200 -355 75 -96 145 -195 157 -220 30 -64 110
-159 235 -281 123 -120 157 -144 284 -199 161 -70 234 -134 432 -377 129 -158
160 -185 297 -253 147 -73 204 -115 301 -218 120 -128 117 -117 90 -270 -69
-389 -111 -535 -236 -822 -37 -85 -92 -210 -121 -278 -119 -273 -163 -444
-209 -807 -97 -783 -168 -1142 -315 -1610 -17 -55 -35 -120 -41 -145 -20 -91
-173 -381 -288 -545 -171 -247 -246 -376 -290 -500 -11 -33 -25 -105 -31 -159
-10 -95 -14 -107 -95 -277 -47 -97 -86 -187 -87 -200 -3 -20 1 -23 22 -21 14
2 51 15 82 28 32 13 62 24 68 24 5 0 10 -20 10 -45 0 -33 5 -47 16 -52 22 -8
284 79 383 129 95 47 156 102 166 150 12 53 86 188 117 211 38 28 68 111 68
190 0 74 5 82 50 91 85 17 112 42 145 137 42 118 207 678 240 814 9 39 29 106
45 150 80 232 372 869 602 1315 61 118 155 301 209 405 91 178 307 629 429
898 32 70 57 112 61 105 4 -7 10 -38 14 -68 18 -150 88 -540 100 -560 2 -3 9
-44 15 -90 6 -47 33 -175 60 -285 152 -624 220 -1226 175 -1550 -9 -60 -20
-173 -25 -250 -4 -77 -14 -193 -21 -258 -11 -105 -11 -123 5 -171 16 -54 16
-55 -8 -108 -13 -29 -58 -116 -100 -193 -42 -77 -76 -143 -76 -147 0 -14 86
-9 130 7 23 8 44 15 47 15 2 0 3 -17 1 -38 l-3 -37 47 2 c54 1 129 37 255 118
159 104 203 168 203 293 0 95 9 107 93 117 68 9 89 26 112 94 51 148 40 286
-55 711 -106 470 -117 645 -74 1175 25 318 28 336 118 840 38 208 54 698 36
1054 -15 295 -12 320 52 516 40 124 134 331 159 352 8 6 32 13 54 15 38 3 40
5 43 38 4 56 12 80 25 80 6 0 37 -20 68 -44 79 -62 98 -71 106 -50 3 9 2 34
-4 56 -6 21 -8 38 -6 38 2 0 37 -32 78 -70 41 -39 77 -70 81 -70 7 0 -3 131
-12 163 -5 15 3 14 55 -12 74 -38 91 -39 91 -7 0 43 17 38 56 -16 50 -69 219
-243 315 -323 194 -163 917 -592 1584 -940 427 -223 537 -296 715 -474 227
-228 331 -452 406 -881 17 -92 19 -162 19 -570 0 -443 -1 -471 -23 -590 -38
-206 -131 -664 -172 -850 -4 -19 -13 -60 -20 -90 -17 -80 -21 -97 -90 -400
-107 -477 -131 -595 -145 -732 -9 -80 5 -148 46 -232 27 -55 28 -60 14 -93
-19 -45 -138 -222 -215 -320 -33 -42 -60 -80 -60 -84 0 -20 85 -7 177 26 54
19 101 35 105 35 4 0 2 -15 -3 -32 -13 -48 -11 -78 6 -84 24 -10 311 84 458
149 66 30 151 106 213 192 58 78 56 105 -7 105 -39 0 -11 118 29 121 9 1 51 1
92 0 95 -2 127 16 164 91 37 76 55 177 65 365 8 160 22 220 36 157 13 -57 16
-63 35 -69 21 -7 63 12 123 56 22 16 46 29 54 29 28 0 116 52 157 93 50 51 66
100 96 297 27 180 30 189 98 280 41 54 64 96 73 132 18 68 17 210 0 527 -19
347 -12 519 49 1231 5 63 14 174 20 245 6 72 15 182 20 245 5 63 14 178 20
255 5 77 15 219 22 315 7 96 12 321 12 500 0 298 -1 333 -22 426 -65 301 -199
462 -535 645 -548 299 -681 430 -759 749 -16 69 -17 402 -1 545 29 250 35 351
31 500 -5 141 -10 176 -41 295 l-35 135 69 98 c39 53 73 97 78 97 4 0 19 -37
32 -82 16 -55 29 -83 39 -83 17 0 82 152 124 294 25 82 28 104 23 175 -4 44
-15 122 -26 171 -11 50 -21 98 -21 108 0 32 29 31 76 -2 24 -18 44 -28 44 -22
0 18 -108 136 -192 208 -46 40 -126 99 -178 131 -155 95 -175 110 -226 175
-27 34 -69 102 -94 152 -54 108 -115 172 -244 258 -256 168 -641 298 -996 336
-303 33 -735 40 -990 16 -338 -31 -601 -94 -1285 -305 -423 -131 -587 -179
-750 -221 -286 -73 -579 -109 -1050 -129 -306 -13 -371 -28 -600 -140 -214
-105 -308 -130 -489 -130 -151 0 -206 17 -329 98 -60 40 -75 80 -87 238 -6 77
-15 176 -21 222 -10 71 -9 86 5 107 27 40 121 109 235 171 240 130 340 215
404 343 73 146 75 288 7 531 -22 80 -40 160 -40 178 0 35 32 123 124 341 78
185 96 255 96 372 0 115 -16 167 -70 230 -64 75 -122 93 -203 65z"/>
</g>
</svg>
