<?xml version="1.0" standalone="no"?>
<!DOCTYPE svg PUBLIC "-//W3C//DTD SVG 20010904//EN"
 "http://www.w3.org/TR/2001/REC-SVG-20010904/DTD/svg10.dtd">
<svg version="1.0" xmlns="http://www.w3.org/2000/svg"
 width="1280.000000pt" height="1280.000000pt" viewBox="0 0 1280.000000 1280.000000"
 preserveAspectRatio="xMidYMid meet">
<metadata>
Created by potrace 1.15, written by Peter Selinger 2001-2017
</metadata>
<g transform="translate(0.000000,1280.000000) scale(0.100000,-0.100000)"
fill="#2e5801" stroke="none">
<path d="M7915 11450 c-227 -12 -364 -38 -740 -140 -120 -33 -248 -59 -385
-80 -347 -51 -521 -94 -792 -198 -272 -104 -504 -224 -915 -470 -137 -83 -315
-181 -394 -218 -400 -186 -559 -313 -796 -634 -94 -128 -169 -267 -231 -428
-29 -73 -84 -196 -123 -275 -80 -158 -131 -289 -178 -449 -32 -108 -101 -292
-183 -488 -55 -128 -117 -339 -157 -526 -17 -78 -55 -233 -84 -345 -30 -112
-58 -228 -62 -257 -7 -51 -9 -54 -56 -78 -27 -13 -73 -40 -102 -58 -87 -56
-290 -132 -440 -166 -55 -12 -300 -34 -617 -55 -339 -22 -538 -59 -790 -147
-63 -22 -154 -53 -203 -69 -82 -29 -87 -32 -87 -59 0 -30 18 -40 76 -40 17 0
109 -16 205 -35 96 -20 251 -44 344 -55 94 -11 224 -29 290 -41 232 -40 291
-49 402 -55 149 -9 302 8 421 48 50 17 94 29 97 26 8 -7 -13 -177 -32 -263
-18 -83 -19 -357 -2 -475 15 -96 61 -183 185 -345 112 -147 119 -162 198 -383
122 -339 172 -510 191 -649 29 -208 31 -214 87 -269 55 -53 91 -69 213 -98
103 -24 167 -21 215 9 22 14 40 29 40 33 0 5 15 16 34 24 48 24 127 186 167
345 36 147 57 198 185 454 56 113 122 253 147 310 46 108 147 406 147 433 0 9
11 47 23 84 13 37 32 100 42 141 l18 74 45 -47 c54 -58 180 -127 284 -156 186
-51 324 -143 684 -456 203 -177 282 -264 366 -408 80 -136 113 -173 157 -182
17 -4 31 -8 31 -9 0 -32 -101 -440 -149 -602 -11 -39 -120 -255 -173 -345 -22
-37 -46 -95 -54 -130 -31 -133 -112 -265 -254 -413 -87 -91 -127 -144 -144
-192 -8 -21 -47 -106 -88 -189 -62 -125 -77 -148 -86 -135 -10 14 -11 13 -5
-3 4 -13 3 -17 -5 -12 -17 10 -92 -12 -99 -29 -3 -8 -9 -13 -13 -10 -17 10 -3
-42 16 -62 41 -41 103 -64 198 -74 191 -18 476 -7 564 22 31 10 33 13 19 24
-14 10 -10 15 32 34 27 12 52 29 56 39 23 55 23 86 -1 165 -34 112 -33 199 3
272 15 30 30 55 33 55 4 0 12 -11 18 -25 15 -33 42 -32 76 4 l29 30 18 -22 19
-22 25 28 c13 15 34 60 46 100 15 49 32 83 55 107 83 88 153 363 214 845 41
317 113 728 131 752 6 6 47 26 92 44 162 64 190 83 290 202 115 137 176 218
177 234 0 23 -195 108 -342 149 -34 9 -58 21 -58 29 0 7 9 34 19 59 32 74 92
284 113 396 15 79 22 177 28 400 9 295 15 353 59 541 34 141 151 380 290 588
118 176 123 186 197 383 61 163 77 220 86 293 5 49 11 91 13 93 1 2 17 -21 35
-50 72 -118 224 -320 331 -440 102 -114 305 -302 623 -579 121 -105 281 -273
353 -370 24 -34 69 -110 98 -169 50 -102 53 -113 59 -211 8 -113 -3 -222 -54
-544 -78 -485 -283 -1189 -435 -1490 -52 -102 -92 -201 -126 -310 -59 -185
-108 -286 -197 -404 -35 -46 -70 -98 -79 -115 -9 -17 -30 -49 -48 -71 -40 -50
-127 -179 -149 -223 -20 -38 -13 -72 14 -72 10 0 21 -4 24 -9 15 -24 415 -53
532 -40 105 13 125 48 106 184 -17 116 -15 178 9 259 24 83 32 94 54 76 13
-11 19 -9 39 9 l24 23 23 -31 c12 -17 26 -31 31 -31 18 0 40 54 49 121 5 40
15 80 24 89 28 31 43 86 70 255 20 125 50 252 115 480 49 171 107 385 130 475
62 250 135 512 205 745 35 116 85 287 110 380 62 232 56 215 67 185 68 -184
46 -640 -73 -1465 -53 -370 -80 -511 -130 -680 -36 -122 -42 -158 -49 -285 -7
-132 -11 -154 -43 -237 -46 -118 -57 -139 -116 -216 -27 -36 -64 -96 -81 -133
-38 -82 -100 -260 -100 -286 0 -48 158 -77 408 -77 l193 1 16 25 c13 19 17 46
15 112 -2 119 19 481 29 486 4 3 17 -11 29 -30 21 -34 56 -65 72 -65 22 0 29
57 17 140 -11 82 -11 87 14 145 32 76 44 160 57 377 20 335 35 489 96 943 74
560 104 815 139 1210 31 346 51 485 87 607 8 26 7 58 -1 119 -12 78 -15 86
-66 145 -159 188 -294 510 -310 739 -3 55 -13 145 -21 200 -11 73 -14 136 -9
230 6 125 8 135 55 256 27 69 83 185 124 258 51 89 101 199 154 339 l80 207
21 315 c12 173 21 338 22 365 l0 50 41 -45 c22 -25 73 -83 111 -130 185 -221
200 -235 362 -323 254 -139 299 -160 380 -178 45 -10 95 -23 111 -30 57 -22
202 -40 369 -46 179 -6 250 3 262 34 10 25 -50 130 -114 202 -32 36 -99 99
-149 141 -51 41 -111 100 -135 130 -57 73 -166 178 -260 250 -41 32 -100 80
-130 107 -137 125 -409 317 -507 359 -102 44 -178 64 -273 70 -113 8 -94 -5
-196 134 -84 115 -248 268 -445 415 -301 226 -566 378 -754 435 -172 52 -433
75 -709 60z m-3027 -4135 c2 -2 -8 -43 -21 -91 -29 -102 -106 -286 -178 -424
-46 -88 -62 -107 -211 -252 -89 -87 -164 -156 -165 -154 -2 2 4 50 12 107 9
57 20 161 26 232 16 197 19 203 257 433 l197 192 40 -20 c22 -11 41 -22 43
-23z m1182 -730 c-24 -291 -38 -377 -79 -513 -57 -184 -65 -272 -65 -724 -1
-223 -4 -409 -8 -413 -17 -18 -459 361 -758 650 -135 130 -256 244 -270 253
-14 9 -39 28 -57 43 -17 15 -40 32 -49 37 -16 9 -16 12 3 38 11 16 51 85 88
154 84 157 217 352 309 453 60 65 94 91 216 164 126 75 155 98 220 170 41 46
82 83 90 83 21 0 236 87 315 127 l60 31 3 -152 c2 -92 -5 -249 -18 -401z"/>
<path d="M7830 2803 c0 -5 -21 -8 -48 -8 -26 1 -55 -3 -66 -8 -14 -7 -16 -6
-11 4 5 7 4 10 -2 6 -12 -8 -84 -19 -125 -20 -55 -1 -29 -25 35 -32 114 -13
209 -32 216 -44 4 -6 30 -13 57 -16 73 -7 233 -25 279 -31 41 -5 103 -12 118
-13 5 -1 6 -5 3 -9 -3 -5 1 -9 9 -9 8 0 11 5 8 10 -4 6 -1 7 8 1 8 -4 19 -10
24 -11 6 -1 28 -7 50 -12 22 -6 74 -13 115 -16 41 -3 98 -8 125 -11 28 -3 88
-7 135 -10 46 -3 87 -10 91 -16 4 -6 12 -7 19 -3 9 5 11 4 6 -4 -5 -8 0 -10
18 -7 14 3 28 1 30 -3 3 -4 20 -8 38 -9 30 0 31 1 10 9 -13 5 -28 7 -33 3 -5
-3 -9 2 -9 10 0 8 5 18 12 22 7 5 8 3 3 -7 -5 -8 0 -7 12 4 11 9 23 14 26 10
4 -3 7 -2 7 4 0 6 -19 15 -42 21 -64 16 -221 42 -249 41 -13 0 -44 4 -67 9
-24 5 -53 7 -64 4 -14 -3 -19 -1 -14 6 4 8 -3 10 -24 7 -16 -2 -30 0 -30 3 0
4 -19 8 -43 9 -23 2 -67 12 -97 22 -100 36 -225 70 -276 76 -27 3 -71 8 -99
11 -57 7 -101 6 -130 -2 -16 -4 -17 -3 -5 5 13 9 13 11 -2 11 -10 0 -18 -3
-18 -7z"/>
<path d="M4760 2290 c0 -5 5 -10 11 -10 5 0 7 5 4 10 -3 6 -8 10 -11 10 -2 0
-4 -4 -4 -10z"/>
</g>
</svg>
